<?xml version="1.0" encoding="UTF-8"?> <!-- Generator: Adobe Illustrator 26.0.2, SVG Export Plug-In . SVG Version: 6.00 Build 0) --> <svg xmlns="http://www.w3.org/2000/svg" xmlns:xlink="http://www.w3.org/1999/xlink" id="Layer_1" x="0px" y="0px" viewBox="0 0 218.3 68" style="enable-background:new 0 0 218.3 68;" xml:space="preserve"> <style type="text/css"> .st0{fill:#003399;} </style> <g> <path class="st0" d="M43.1,52.5c0.2,0,0.4,0,0.5-0.1c0.8-0.3,1.2-1.2,0.9-1.9l-13.1-34l0,0c-0.1-0.4-0.4-0.7-0.9-0.8 c-0.8-0.3-1.6,0.1-1.9,0.9l-13.1,34c-0.3,0.8,0.1,1.6,0.9,1.9c0.2,0.1,0.4,0.1,0.5,0.1c0.6,0,1.2-0.4,1.4-1l4-10.4h15.3l4,10.4 C41.9,52.2,42.5,52.5,43.1,52.5z M23.5,38.2l6.5-17l6.5,17H23.5z"></path> <path class="st0" d="M53.6,50.5l-13.1-34c-0.3-0.8-1.2-1.2-1.9-0.9c-0.8,0.3-1.2,1.2-0.9,1.9l13.1,34c0.2,0.6,0.8,1,1.4,1 c0.2,0,0.4,0,0.5-0.1C53.5,52.1,53.9,51.3,53.6,50.5z"></path> <path class="st0" d="M201.6,50.8l-6-34c-0.1-0.8-0.9-1.4-1.7-1.2c-0.8,0.1-1.4,0.9-1.2,1.7l6,34c0.1,0.7,0.8,1.2,1.5,1.2 c0.1,0,0.2,0,0.3,0C201.2,52.4,201.8,51.6,201.6,50.8z"></path> <path class="st0" d="M129.8,14.4c-11.4,0-19.6,8.3-19.6,19.6c0,11.4,8.3,19.6,19.6,19.6c11.6,0,19.6-8.1,19.6-19.6 C149.5,22.6,141.2,14.4,129.8,14.4z M129.8,50.7c-9.8,0-16.6-6.8-16.6-16.6s6.8-16.6,16.6-16.6s16.6,6.8,16.6,16.6 S139.6,50.7,129.8,50.7z"></path> <path class="st0" d="M129.8,22.9c-6.3,0-10.9,4.7-10.9,11.1s4.6,11.1,10.9,11.1s10.9-4.7,10.9-11.1S136.1,22.9,129.8,22.9z M129.8,42.2c-4.6,0-7.9-3.3-7.9-8.1s3.2-8.1,7.9-8.1c4.7,0,7.9,3.3,7.9,8.1S134.5,42.2,129.8,42.2z"></path> <path class="st0" d="M187,16.7c-0.1-0.7-0.7-1.2-1.3-1.2c-0.7-0.1-1.3,0.3-1.5,1l-6.4,17.7l-6.4-17.7c-0.3-0.8-1.1-1.2-1.9-0.9 c-0.8,0.3-1.2,1.1-0.9,1.9l7.7,21.1l-2.9,8l-11-30.1c-0.2-0.6-0.9-1-1.5-1c-0.7,0.1-1.2,0.6-1.3,1.2l-6,34 c-0.1,0.8,0.4,1.6,1.2,1.7c0.8,0.1,1.6-0.4,1.7-1.2l5-28.5L172,51.5c0.2,0.6,0.8,1,1.4,1s1.2-0.4,1.4-1L185,22.8l5.1,28.5 c0.1,0.7,0.8,1.2,1.5,1.2c0.1,0,0.2,0,0.3,0c0.8-0.1,1.4-0.9,1.2-1.7L187,16.7z"></path> <path class="st0" d="M55.4,52.3c0.2,0.1,0.5,0.2,0.7,0.2c0.5,0,1-0.3,1.3-0.8L66,37l8.5,14.8c0.3,0.5,0.8,0.8,1.3,0.8 c0.3,0,0.5-0.1,0.7-0.2c0.7-0.4,1-1.3,0.5-2l-19.6-34c-0.4-0.7-1.3-1-2-0.5c-0.7,0.4-1,1.3-0.5,2L64.2,34l-9.4,16.3 C54.4,51,54.7,51.9,55.4,52.3z"></path> <path class="st0" d="M84.3,51.8c0.3,0.5,0.8,0.7,1.3,0.7c0.3,0,0.5-0.1,0.7-0.2c0.7-0.4,1-1.3,0.5-2l-9.9-17L86,17.8 c0.4-0.7,0.2-1.6-0.5-2s-1.6-0.2-2,0.5l-8.1,14l-8.1-14c-0.4-0.7-1.3-1-2-0.5c-0.7,0.4-1,1.3-0.5,2L84.3,51.8z"></path> <path class="st0" d="M93.8,52.5c0.8,0,1.5-0.7,1.5-1.5V17c0-0.8-0.7-1.5-1.5-1.5s-1.5,0.7-1.5,1.5v34C92.3,51.9,93,52.5,93.8,52.5z "></path> <path class="st0" d="M102.3,15.5c-0.8,0-1.5,0.7-1.5,1.5v34c0,0.8,0.7,1.5,1.5,1.5s1.5-0.7,1.5-1.5V17 C103.8,16.2,103.2,15.5,102.3,15.5z"></path> </g> </svg> 