<?xml version="1.0" encoding="UTF-8"?> <!-- Generator: Adobe Illustrator 26.0.2, SVG Export Plug-In . SVG Version: 6.00 Build 0) --> <svg xmlns="http://www.w3.org/2000/svg" xmlns:xlink="http://www.w3.org/1999/xlink" id="Layer_1" x="0px" y="0px" viewBox="0 0 1000 360" style="enable-background:new 0 0 1000 360;" xml:space="preserve"> <style type="text/css"> .st0{fill:#FFFFFF;} </style> <g id="Back"> </g> <g id="Front"> <g> <path class="st0" d="M162.7,271c0.7,0,1.4-0.1,2.1-0.4c3.1-1.2,4.6-4.7,3.5-7.8L103,92.8c0,0,0,0,0-0.1c-0.6-1.5-1.8-2.8-3.4-3.4 c-3.1-1.2-6.6,0.4-7.8,3.5L26.5,262.9c-1.2,3.1,0.4,6.6,3.5,7.8c0.7,0.3,1.4,0.4,2.1,0.4c2.4,0,4.7-1.5,5.6-3.9L58,214.4h78.8 l20.3,52.8C158,269.6,160.2,271,162.7,271z M62.6,202.3l34.8-90.6l34.8,90.6H62.6z"></path> <path class="st0" d="M213.8,262.9L148.5,92.8c-1.2-3.1-4.7-4.6-7.8-3.5c-3.1,1.2-4.6,4.7-3.5,7.8l65.3,170.1 c0.9,2.4,3.2,3.9,5.6,3.9c0.7,0,1.4-0.1,2.1-0.4C213.4,269.4,215,266,213.8,262.9z"></path> <path class="st0" d="M953.9,264L923.7,93.9c-0.6-3.3-3.7-5.4-7-4.9c-3.3,0.6-5.4,3.7-4.9,7L942,266.1c0.5,2.9,3,5,5.9,5 c0.3,0,0.7,0,1.1-0.1C952.3,270.4,954.4,267.2,953.9,264z"></path> <path class="st0" d="M665.9,110.4c-17.5-17.5-42.2-27.2-69.6-27.2s-52,9.6-69.6,27.2c-17.5,17.5-27.2,42.2-27.2,69.6 c0,27.4,9.6,52,27.2,69.6c17.5,17.5,42.2,27.2,69.6,27.2c26.9,0,51.4-9.4,68.9-26.5c18.2-17.7,27.8-42,27.8-70.2 C693.1,152.6,683.4,127.9,665.9,110.4z M596.4,264.7c-49.9,0-84.7-34.8-84.7-84.7s34.8-84.7,84.7-84.7s84.7,34.8,84.7,84.7 C681.1,229.9,646.2,264.7,596.4,264.7z"></path> <path class="st0" d="M596.4,125.8c-30.6,0-52.8,22.8-52.8,54.2s22.2,54.2,52.8,54.2s52.8-22.8,52.8-54.2S626.9,125.8,596.4,125.8z M596.4,222.2c-24,0-40.8-17.3-40.8-42.2s16.8-42.2,40.8-42.2s40.8,17.3,40.8,42.2S620.4,222.2,596.4,222.2z"></path> <path class="st0" d="M880.7,93.9c-0.5-2.7-2.7-4.7-5.4-4.9c-2.7-0.2-5.2,1.4-6.2,3.9l-33.6,92.4l-33.6-92.4 c-1.1-3.1-4.6-4.7-7.7-3.6c-3.1,1.1-4.7,4.6-3.6,7.7l38.5,105.9l-16.2,44.6L756.6,92.9c-0.9-2.6-3.5-4.2-6.2-3.9 c-2.7,0.2-4.9,2.3-5.4,4.9L715,264c-0.6,3.3,1.6,6.4,4.9,7c3.3,0.6,6.4-1.6,7-4.9l26.1-148l54.2,149c0.9,2.4,3.1,3.9,5.6,3.9 s4.8-1.6,5.6-3.9L872.7,118L899,266.1c0.5,2.9,3,5,5.9,5c0.3,0,0.7,0,1.1-0.1c3.3-0.6,5.4-3.7,4.9-7L880.7,93.9z"></path> <path class="st0" d="M224.9,270.2c0.9,0.5,2,0.8,3,0.8c2.1,0,4.1-1.1,5.2-3l43.9-76l43.9,76c1.1,1.9,3.1,3,5.2,3c1,0,2-0.3,3-0.8 c2.9-1.7,3.9-5.3,2.2-8.2L233.1,91.9c-1.7-2.9-5.3-3.9-8.2-2.2c-2.9,1.7-3.9,5.3-2.2,8.2l47.4,82l-47.4,82 C221.1,264.9,222,268.6,224.9,270.2z"></path> <path class="st0" d="M370,268c1.1,1.9,3.1,3,5.2,3c1,0,2.1-0.3,3-0.8c2.9-1.7,3.8-5.3,2.2-8.2l-49.7-86l45.1-78.1 c1.7-2.9,0.7-6.5-2.2-8.2c-2.9-1.7-6.5-0.7-8.2,2.2L323.8,164L282,91.9c-1.7-2.9-5.3-3.8-8.2-2.2c-2.9,1.7-3.8,5.3-2.2,8.2 L370,268z"></path> <path class="st0" d="M416.4,271c3.3,0,6-2.7,6-6V94.9c0-3.3-2.7-6-6-6s-6,2.7-6,6V265C410.4,268.3,413.1,271,416.4,271z"></path> <path class="st0" d="M458.9,88.9c-3.3,0-6,2.7-6,6V265c0,3.3,2.7,6,6,6s6-2.7,6-6V94.9C464.9,91.6,462.2,88.9,458.9,88.9z"></path> </g> </g> </svg> 